# xmcd
#
# Track frame offsets:
#	150
#	10431
#	22011
#	37158
#	49136
#	65504
#	76254
#	88013
#	101113
#	111785
#	121791
#	136234
#	151674
#	164371
#	174158
#
# Disc length: 2500 seconds
#
# Revision: 0
# Processed by: cddbd v1.5.2PL0 Copyright (c) Steve Scherf et al.
# Submitted via: EZCDAudioConverter 2.1.7.1
#
DISCID=bb09c20f
DTITLE=V/A - I Can See For Miles
DYEAR=1900
DGENRE=MOJO
TTITLE0=First Crew To The Moon - The Sun Lights Up The Shadows Of Your Mind
TTITLE1=Mystery Trend - Johnny Was A Good Boy
TTITLE2=Terry Manning - Guess Things Happen That Way
TTITLE3=13th Floor Elevators - (I've Got) Levitation
TTITLE4=Red Crayola - Hurricane Fighter Plane
TTITLE5=Bubble Puppy - Days Of Our Time
TTITLE6=Balloon Farm - A Question Of Temperature
TTITLE7=Music Machine - The People In Me
TTITLE8=Chocolate Watch Band - Are You Gonna Be There (At The Love-In)
TTITLE9=The Ashes - Let's Take Our Love
TTITLE10=Lost And Found - Don't Fall Down
TTITLE11=Free Spirits - I'm Gonna Be Free
TTITLE12=Golden Dawn - Starvation
TTITLE13=Endle St. Cloud - Come Through
TTITLE14=13th Floor Elevators - You Don't Know [Live]
EXTD=
EXTT0=
EXTT1=
EXTT2=
EXTT3=
EXTT4=
EXTT5=
EXTT6=
EXTT7=
EXTT8=
EXTT9=
EXTT10=
EXTT11=
EXTT12=
EXTT13=
EXTT14=
PLAYORDER=
